<svg width="299" height="222" viewBox="0 0 299 222" fill="none" xmlns="http://www.w3.org/2000/svg">
<path d="M298.469 195.089H0.53125V195.238H298.469V195.089Z" fill="#E6E6E6"/>
<path d="M74.9151 204.105H55.1797V204.254H74.9151V204.105Z" fill="#E6E6E6"/>
<path d="M48.93 204.104H37.4951V204.253H48.93V204.104Z" fill="#E6E6E6"/>
<path d="M125.988 206.298H114.553V206.447H125.988V206.298Z" fill="#E6E6E6"/>
<path d="M185.621 209.623H159.885V209.772H185.621V209.623Z" fill="#E6E6E6"/>
<path d="M154.58 209.623H150.808V209.772H154.58V209.623Z" fill="#E6E6E6"/>
<path d="M270.67 206.298H214.849V206.447H270.67V206.298Z" fill="#E6E6E6"/>
<path d="M141.757 168.514H26.6992C25.7979 168.512 24.934 168.153 24.2972 167.515C23.6604 166.877 23.3027 166.013 23.3027 165.111V3.37266C23.3106 2.47648 23.6717 1.61958 24.3076 0.988093C24.9436 0.356607 25.803 0.00153521 26.6992 0H141.757C142.659 0 143.525 0.358472 144.163 0.996555C144.801 1.63464 145.159 2.50007 145.159 3.40245V165.111C145.159 166.014 144.801 166.879 144.163 167.517C143.525 168.155 142.659 168.514 141.757 168.514ZM26.6992 0.119176C25.8374 0.120754 25.0114 0.464226 24.4025 1.0742C23.7937 1.68418 23.4517 2.51081 23.4517 3.37266V165.111C23.4517 165.973 23.7937 166.8 24.4025 167.41C25.0114 168.02 25.8374 168.363 26.6992 168.365H141.757C142.619 168.363 143.446 168.02 144.056 167.41C144.666 166.8 145.009 165.974 145.01 165.111V3.37266C145.009 2.51026 144.666 1.68364 144.056 1.07384C143.446 0.464033 142.619 0.120751 141.757 0.119176H26.6992Z" fill="#E6E6E6"/>
<path d="M270.646 168.514H155.582C154.68 168.512 153.816 168.153 153.178 167.515C152.54 166.878 152.181 166.013 152.18 165.111V3.37266C152.189 2.47593 152.552 1.61904 153.188 0.98772C153.825 0.356399 154.685 0.00151846 155.582 0H270.646C271.541 0.00310123 272.399 0.358866 273.034 0.990184C273.668 1.6215 274.028 2.4775 274.036 3.37266V165.111C274.036 166.012 273.679 166.875 273.044 167.513C272.408 168.151 271.546 168.511 270.646 168.514ZM155.582 0.119176C154.72 0.120751 153.893 0.464033 153.283 1.07384C152.674 1.68364 152.33 2.51026 152.329 3.37266V165.111C152.33 165.974 152.674 166.8 153.283 167.41C153.893 168.02 154.72 168.363 155.582 168.365H270.646C271.508 168.363 272.335 168.02 272.945 167.41C273.554 166.8 273.898 165.974 273.899 165.111V3.37266C273.898 2.51026 273.554 1.68364 272.945 1.07384C272.335 0.464033 271.508 0.120751 270.646 0.119176H155.582Z" fill="#E6E6E6"/>
<path d="M159.865 144.19H146.762V196.168H159.865V144.19Z" fill="#E0E0E0"/>
<path d="M157.381 196.167H159.872V189.088H154.771L157.381 196.167Z" fill="#FAFAFA"/>
<path d="M102.451 144.19H89.3477V196.168H102.451V144.19Z" fill="#E0E0E0"/>
<path d="M159.872 144.19H100.284V191.824H159.872V144.19Z" fill="#FAFAFA"/>
<path d="M157.71 146.532V159.134H102.43V146.532H157.692M157.924 146.299H102.216V159.361H157.942V146.299H157.924Z" fill="#E0E0E0"/>
<path d="M102.769 196.167H100.284V189.088H105.379L102.769 196.167Z" fill="#FAFAFA"/>
<path d="M128.763 152.83C128.763 153.091 128.84 153.345 128.985 153.562C129.129 153.778 129.335 153.947 129.576 154.047C129.816 154.146 130.081 154.172 130.336 154.122C130.592 154.071 130.827 153.945 131.011 153.761C131.195 153.577 131.32 153.342 131.371 153.087C131.422 152.832 131.396 152.567 131.296 152.326C131.197 152.086 131.028 151.88 130.811 151.735C130.595 151.59 130.34 151.513 130.08 151.513C129.73 151.513 129.395 151.652 129.148 151.899C128.901 152.146 128.763 152.481 128.763 152.83Z" fill="#E6E6E6"/>
<path d="M157.71 161.703V174.305H102.43V161.703H157.692M157.924 161.476H102.216V174.538H157.942V161.482L157.924 161.476Z" fill="#E0E0E0"/>
<path d="M128.763 168.038C128.763 168.299 128.84 168.553 128.985 168.77C129.129 168.987 129.335 169.155 129.576 169.255C129.816 169.355 130.081 169.381 130.336 169.33C130.592 169.279 130.827 169.154 131.011 168.969C131.195 168.785 131.32 168.551 131.371 168.295C131.422 168.04 131.396 167.775 131.296 167.534C131.197 167.294 131.028 167.088 130.811 166.943C130.595 166.799 130.34 166.721 130.08 166.721C129.73 166.721 129.395 166.86 129.148 167.107C128.901 167.354 128.763 167.689 128.763 168.038Z" fill="#E6E6E6"/>
<path d="M157.71 176.881V189.489H102.43V176.881H157.692M157.924 176.648H102.216V189.716H157.942V176.648H157.924Z" fill="#E0E0E0"/>
<path d="M128.763 183.185C128.764 183.445 128.842 183.699 128.988 183.915C129.133 184.13 129.339 184.298 129.58 184.397C129.82 184.496 130.085 184.521 130.34 184.47C130.595 184.418 130.829 184.292 131.013 184.108C131.196 183.923 131.321 183.689 131.372 183.433C131.422 183.178 131.395 182.914 131.296 182.673C131.196 182.433 131.027 182.228 130.811 182.083C130.594 181.939 130.34 181.862 130.08 181.862C129.906 181.862 129.734 181.896 129.574 181.963C129.414 182.029 129.269 182.127 129.146 182.25C129.024 182.373 128.927 182.518 128.861 182.679C128.795 182.839 128.762 183.011 128.763 183.185Z" fill="#E6E6E6"/>
<path d="M94.4451 114.004H81.3418V196.175H94.4451V114.004Z" fill="#E0E0E0"/>
<path d="M91.9575 196.167H94.4483V189.088H89.3535L91.9575 196.167Z" fill="#FAFAFA"/>
<path d="M45.4754 114.004H32.3721V196.175H45.4754V114.004Z" fill="#E0E0E0"/>
<path d="M94.4458 114.004H43.3018V191.831H94.4458V114.004Z" fill="#FAFAFA"/>
<path d="M92.2452 116.195V133.815H45.5106V116.195H92.2452ZM92.5193 115.927H45.2246V134.072H92.5074V115.933L92.5193 115.927Z" fill="#E0E0E0"/>
<path d="M92.2449 135.966V182.701H69.983V135.966H92.2449ZM92.519 135.692H69.7148V182.975H92.519V135.692Z" fill="#E0E0E0"/>
<path d="M67.7725 135.966V182.701H45.5106V135.966H67.7725ZM68.0407 135.692H45.2246V182.975H68.0288V135.692H68.0407Z" fill="#E0E0E0"/>
<path d="M45.7925 196.167H43.3018V189.088H48.4025L45.7925 196.167Z" fill="#FAFAFA"/>
<path d="M67.5586 125.014C67.5574 125.276 67.634 125.533 67.7786 125.751C67.9233 125.969 68.1295 126.14 68.3711 126.241C68.6127 126.342 68.8789 126.369 69.1359 126.318C69.3929 126.268 69.6291 126.143 69.8147 125.958C70.0003 125.773 70.1269 125.537 70.1784 125.281C70.23 125.024 70.2041 124.758 70.1042 124.515C70.0042 124.273 69.8347 124.066 69.617 123.921C69.3993 123.775 69.1433 123.697 68.8814 123.697C68.5316 123.697 68.1961 123.836 67.9482 124.083C67.7002 124.33 67.5602 124.665 67.5586 125.014Z" fill="#E6E6E6"/>
<path d="M72.2686 158.223C72.2686 158.485 72.3463 158.741 72.4919 158.959C72.6375 159.176 72.8445 159.346 73.0866 159.446C73.3286 159.546 73.5949 159.572 73.8517 159.52C74.1085 159.468 74.3441 159.342 74.5289 159.156C74.7137 158.971 74.8392 158.734 74.8896 158.477C74.9399 158.22 74.9129 157.954 74.8118 157.713C74.7108 157.471 74.5403 157.265 74.322 157.12C74.1037 156.976 73.8473 156.899 73.5855 156.9C73.412 156.9 73.2403 156.934 73.0801 157.001C72.92 157.068 72.7745 157.165 72.6522 157.288C72.5298 157.411 72.4329 157.557 72.3671 157.717C72.3013 157.878 72.2678 158.05 72.2686 158.223Z" fill="#E6E6E6"/>
<path d="M62.8447 158.223C62.8459 158.483 62.9242 158.737 63.0696 158.953C63.215 159.169 63.4211 159.337 63.6618 159.435C63.9025 159.534 64.1671 159.559 64.4222 159.508C64.6772 159.456 64.9113 159.331 65.0949 159.146C65.2785 158.962 65.4033 158.727 65.4536 158.472C65.504 158.216 65.4775 157.952 65.3777 157.712C65.2778 157.471 65.1091 157.266 64.8926 157.122C64.6762 156.977 64.4218 156.9 64.1616 156.9C63.9882 156.9 63.8165 156.934 63.6563 157.001C63.4961 157.068 63.3507 157.165 63.2283 157.288C63.106 157.411 63.0091 157.557 62.9433 157.717C62.8774 157.878 62.844 158.05 62.8447 158.223Z" fill="#E6E6E6"/>
<path d="M61.3495 91.0919H55.8258C56.3348 93.7714 56.6554 96.4833 56.7851 99.2077C56.7851 102.187 52.5783 114.003 58.5728 114.003C64.5673 114.003 60.3604 102.217 60.3604 99.2077C60.5 96.4826 60.8305 93.7707 61.3495 91.0919Z" fill="#E0E0E0"/>
<path d="M40.333 103.176V106.751C40.3393 108.667 41.1035 110.504 42.4587 111.859C43.814 113.214 45.6503 113.978 47.5669 113.985H51.1422C53.0588 113.978 54.8952 113.214 56.2504 111.859C57.6057 110.504 58.3699 108.667 58.3761 106.751V103.176H40.333Z" fill="#F5F5F5"/>
<path d="M117.124 136.61C117.124 140.781 121.79 144.19 127.492 144.19H132.641C138.343 144.19 143.009 140.781 143.009 136.61H117.124Z" fill="#E0E0E0"/>
<path d="M253.55 130.498C250.428 133.048 246.114 137.714 242.169 144.28C239.535 148.654 237.95 153.218 237.253 159.284C237.253 152.432 237.295 145.073 237.319 138.125C238.111 136.337 239.923 132.214 241.222 128.96C245.554 118.097 247.18 115.422 251.072 106.055C256.274 93.5413 261.601 78.7278 260.075 79.9136C256.965 82.3269 245.047 104.642 243.76 107.836C240.252 116.36 238.083 125.375 237.331 134.561C237.331 128.007 237.378 122.048 237.402 117.424C237.486 102.342 237.742 97.4741 237.867 95.9725C238.35 95.2098 238.916 94.3219 239.249 93.8452C242.05 89.7933 243.128 86.3491 245.762 80.3069C249.504 71.7561 252.722 56.5672 251.781 57.3299C247.86 60.5238 244.773 67.3764 240.709 76.1179C236.645 84.8594 237.807 89.8826 237.003 97.343C236.836 98.8089 236.705 104.339 236.61 111.996C235.561 103.832 233.583 98.4573 229.977 93.5711C225.544 87.5587 221.254 83.5008 218.108 81.3795C214.961 79.2582 223.542 94.024 227.642 100.448C231.294 106.192 234.661 111.251 236.58 116.238C236.479 126.624 236.431 139.769 236.431 151.991C235.489 146.425 233.952 140.425 231.902 135.783C229.435 130.206 225.645 121.649 222.624 118.747C221.903 118.05 225.783 134.693 228.273 139.114C230.764 143.535 232.593 147.712 234.161 150.221C234.524 150.817 235.74 153.063 236.431 154.362C236.431 169.301 236.514 182.482 236.645 186.969H237.289C237.247 185.813 237.235 178.209 237.253 168.151C238.808 162.693 242.36 156.46 245.292 150.775C248.485 144.62 256.673 127.965 253.55 130.498Z" fill="#E0E0E0"/>
<path d="M246.289 196.168H227.614L226.202 177.863H247.701L246.289 196.168Z" fill="#F0F0F0"/>
<path d="M249.096 179.997H224.814L224.123 173.817H249.793L249.096 179.997Z" fill="#F5F5F5"/>
<path d="M74.5795 12.2158H41.1807V48.892H74.5795V12.2158Z" fill="#E0E0E0"/>
<path d="M78.1966 12.2157H43.6953V48.8919H78.1966V12.2157Z" fill="#F5F5F5"/>
<path d="M75.2988 46.0017V15.1055L46.5776 15.1055V46.0017H75.2988Z" fill="white"/>
<path d="M68.334 38.5045V22.5886H53.5384V38.5045H68.334Z" fill="#F5F5F5"/>
<path d="M244.864 16.489H213.837V50.5612H244.864V16.489Z" fill="#E0E0E0"/>
<path d="M248.233 16.489H216.187V50.5612H248.233V16.489Z" fill="#F5F5F5"/>
<path d="M245.551 47.8715V19.1741H218.873V47.8715H245.551Z" fill="white"/>
<path d="M232.212 41.847C236.81 41.847 240.536 38.1201 240.536 33.5226C240.536 28.9252 236.81 25.1982 232.212 25.1982C227.615 25.1982 223.888 28.9252 223.888 33.5226C223.888 38.1201 227.615 41.847 232.212 41.847Z" fill="#F5F5F5"/>
<path d="M109.273 34.0833H84.4961V61.2909H109.273V34.0833Z" fill="#E0E0E0"/>
<path d="M111.95 34.0833H86.3574V61.291H111.95V34.0833Z" fill="#F5F5F5"/>
<path d="M109.814 59.1475V36.2301H88.5119V59.1475H109.814Z" fill="white"/>
<path d="M99.1665 41.8892L93.3389 51.9833H104.994L99.1665 41.8892Z" fill="#F5F5F5"/>
<path d="M149.498 222C213.306 222 265.033 218.98 265.033 215.255C265.033 211.529 213.306 208.51 149.498 208.51C85.6904 208.51 33.9639 211.529 33.9639 215.255C33.9639 218.98 85.6904 222 149.498 222Z" fill="#F5F5F5"/>
<path d="M208.641 64.6107L202.73 62.2272C202.73 62.2272 194.93 76.4507 192.695 77.1717C189.656 78.149 183.364 80.8662 179.633 81.3429C179.127 81.9388 178.299 83.7919 178.376 84.4653C183.387 86.1397 194.399 83.9171 196.759 82.1652C202.128 78.1907 208.641 64.6107 208.641 64.6107Z" fill="#E58A7B"/>
<path d="M210.46 61.3736C211.562 65.4434 205.591 73.6307 205.591 73.6307L197.768 69.2451C197.768 69.2451 199.233 65.8784 201.021 62.4521C203.887 56.9164 209.202 56.7317 210.46 61.3736Z" fill="#37B24D"/>
<path opacity="0.2" d="M210.46 61.3736C211.562 65.4434 205.591 73.6307 205.591 73.6307L197.768 69.2451C197.768 69.2451 199.233 65.8784 201.021 62.4521C203.887 56.9164 209.202 56.7317 210.46 61.3736Z" fill="black"/>
<path opacity="0.2" d="M200.862 70.9986L203.943 72.7266L204.485 63.2701C202.692 64.6466 201.428 68.7939 200.862 70.9986Z" fill="black"/>
<path d="M205.311 58.3104C205.311 58.3104 199.221 71.8607 202.772 97.09H226.768C227.15 93.4075 225.886 75.4359 230.457 58.084C227.824 57.5696 225.161 57.2292 222.484 57.0651C219.088 56.8683 215.684 56.8683 212.288 57.0651C209.935 57.3041 207.602 57.7204 205.311 58.3104Z" fill="#37B24D"/>
<path opacity="0.2" d="M205.311 58.3104C205.311 58.3104 199.221 71.8607 202.772 97.09H226.768C227.15 93.4075 225.886 75.4359 230.457 58.084C227.824 57.5696 225.161 57.2292 222.484 57.0651C219.088 56.8683 215.684 56.8683 212.288 57.0651C209.935 57.3041 207.602 57.7204 205.311 58.3104Z" fill="black"/>
<g style="mix-blend-mode:multiply">
<path d="M199.736 215.79C199.701 216.434 208.8 216.952 220.056 216.952C231.312 216.952 240.476 216.434 240.512 215.79C240.548 215.147 231.455 214.634 220.193 214.634C208.931 214.634 199.778 215.153 199.736 215.79Z" fill="#E8ECF1"/>
</g>
<path d="M215.757 198.881L211.501 200.529L215.167 209.999L219.423 208.352L215.757 198.881Z" fill="#E58A7B"/>
<path d="M234.74 211.206H230.253L228.608 200.82H233.095L234.74 211.206Z" fill="#E58A7B"/>
<path d="M229.937 210.689H234.978C235.065 210.69 235.15 210.721 235.216 210.778C235.283 210.834 235.327 210.913 235.341 210.999L235.991 214.986C236.005 215.086 235.997 215.188 235.967 215.284C235.938 215.381 235.889 215.47 235.822 215.546C235.755 215.622 235.673 215.682 235.581 215.723C235.489 215.764 235.389 215.785 235.288 215.784C233.53 215.754 232.684 215.647 230.467 215.647C229.103 215.647 226.296 215.79 224.401 215.79C222.506 215.79 222.381 213.931 223.162 213.758C226.665 213.001 228.024 211.971 229.192 210.97C229.398 210.789 229.663 210.689 229.937 210.689Z" fill="#263238"/>
<path d="M215.047 209.151L219.814 207.757C219.899 207.733 219.99 207.739 220.071 207.773C220.152 207.808 220.219 207.87 220.261 207.948L222.048 211.523C222.09 211.614 222.111 211.712 222.111 211.812C222.11 211.912 222.088 212.01 222.045 212.1C222.003 212.191 221.941 212.27 221.864 212.334C221.788 212.398 221.698 212.445 221.602 212.47C219.868 212.947 218.706 213.239 216.537 213.871C215.041 214.306 213.516 215.015 212.038 215.485C211.013 215.813 208.606 215.825 207.36 215.825C205.519 215.825 205.108 213.883 205.9 213.793C207.896 213.573 208.165 213.674 209.267 213.12C211.071 212.331 212.705 211.202 214.082 209.795C214.341 209.499 214.674 209.277 215.047 209.151Z" fill="#263238"/>
<path d="M180.387 81.3173L175.453 79.2496L173.421 84.7198C175.443 85.0278 177.5 85.0278 179.523 84.7198L180.387 81.3173Z" fill="#E58A7B"/>
<path d="M171.777 79.1064L171.646 82.7413L173.415 84.7077L175.447 79.2375L171.777 79.1064Z" fill="#E58A7B"/>
<path d="M216.347 199.685L212.078 201.333L213.969 206.231L218.238 204.583L216.347 199.685Z" fill="#CF6F64"/>
<path d="M233.095 200.82H228.608L229.46 206.177H233.947L233.095 200.82Z" fill="#CF6F64"/>
<path opacity="0.2" d="M202.012 90.2691C202.101 91.3476 202.202 92.45 202.333 93.5821L220.174 87.7902C222.96 86.9645 225.381 85.2137 227.039 82.8266C227.11 81.2356 227.199 79.5612 227.336 77.8153C227.396 76.9691 227.468 76.0991 227.545 75.2172C227.622 74.3353 227.73 73.3581 227.843 72.4166L202.012 90.2691Z" fill="black"/>
<path d="M207.838 70.724L207.242 70.6525C207.594 67.6731 209.816 65.3254 212.158 65.385V65.9808C210.108 65.9391 208.154 68.0545 207.838 70.724Z" fill="white"/>
<path d="M211.01 76.2224H210.909V75.6265C212.959 75.704 214.884 73.5648 215.199 70.9012L215.795 70.9727C215.48 73.8866 213.328 76.2224 211.01 76.2224Z" fill="white"/>
<path d="M222.144 45.5848C221.304 48.8681 220.315 54.8805 222.478 57.0674C222.478 57.0674 220.964 60.3983 214.868 60.3983C209.297 60.3983 212.282 57.0674 212.282 57.0674C215.989 56.1974 216.054 53.4921 215.566 50.9298L222.144 45.5848Z" fill="#E58A7B"/>
<path d="M219.461 47.7637L215.57 50.9278C215.691 51.5166 215.761 52.1146 215.779 52.7154C216.917 53.8476 219.199 50.9814 219.432 49.5155C219.55 48.9384 219.56 48.3445 219.461 47.7637Z" fill="#CF6F64"/>
<path d="M208.888 45.5425C209.159 46.0118 209.524 46.4201 209.959 46.7421C210.395 47.064 210.893 47.2926 211.421 47.4135C212.851 47.7294 213.566 46.4125 213.173 45.0896C212.821 43.8979 211.647 42.295 210.193 42.5691C209.882 42.6332 209.59 42.7711 209.343 42.9711C209.096 43.171 208.9 43.4274 208.772 43.7185C208.644 44.0097 208.588 44.3273 208.608 44.6446C208.629 44.9619 208.725 45.2698 208.888 45.5425Z" fill="#CF6F64"/>
<path d="M211.249 35.0373C209.02 36.0562 208.234 44.911 211.034 46.2219C213.835 47.5328 215.468 33.1007 211.249 35.0373Z" fill="#263238"/>
<path d="M222.827 40.6443C222.291 45.0895 222.231 47.7054 219.847 49.9817C219.109 50.737 218.176 51.2736 217.152 51.5321C216.127 51.7907 215.051 51.7611 214.043 51.4467C213.034 51.1323 212.132 50.5452 211.436 49.7504C210.74 48.9556 210.277 47.984 210.099 46.9427C209.378 42.9503 210.373 36.354 214.83 34.5842C215.767 34.1712 216.797 34.0161 217.813 34.1351C218.83 34.2541 219.796 34.6429 220.612 35.2611C221.428 35.8793 222.063 36.7044 222.453 37.651C222.842 38.5975 222.971 39.631 222.827 40.6443Z" fill="#E58A7B"/>
<path d="M215.502 37.3363C218.803 36.4961 221.228 35.9241 220.358 38.6711C219.208 42.3417 217.826 45.8931 219.679 46.054C220.811 46.1553 225.817 44.034 225.179 41.8828C224.625 40.0118 226.967 39.4993 227.384 38.5519C228.927 35.1197 224.512 35.5725 225.298 33.487C226.085 31.4014 221.723 28.0407 219.34 29.7151C215.46 32.4203 208.804 32.3786 212.302 27.9274C214.811 24.7514 210.336 25.4009 210.336 25.4009C210.336 25.4009 213.041 27.0038 208.489 29.4827C203.674 32.1284 208.089 39.2372 215.502 37.3363Z" fill="#263238"/>
<path d="M224.578 45.5425C223.927 46.4855 222.948 47.1524 221.831 47.4135C220.36 47.7294 219.793 46.4125 220.348 45.0896C220.842 43.8979 222.201 42.295 223.607 42.5691C225.013 42.8432 225.335 44.3746 224.578 45.5425Z" fill="#E58A7B"/>
<path d="M202.769 97.0911C202.769 97.0911 198.741 133.142 198.425 146.823C198.104 161.052 212.077 205.451 212.077 205.451L219.227 202.472C219.227 202.472 210.885 161.904 212.077 147.931C213.34 132.695 218.56 97.1149 218.56 97.1149L202.769 97.0911Z" fill="#37B24D"/>
<path opacity="0.2" d="M212.779 106.989C209.568 113.651 211.731 126.826 213.471 134.632C214.132 129.12 214.919 123.137 215.663 117.602C215.592 109.092 214.931 102.52 212.779 106.989Z" fill="black"/>
<path d="M218.908 200.111C218.944 200.111 219.754 202.388 219.754 202.388L211.507 205.856L210.208 203.436L218.908 200.111Z" fill="#37B24D"/>
<path d="M211.281 97.0911C211.281 97.0911 214.362 131.378 216.4 144.219C218.64 158.288 227.424 205.141 227.424 205.141H235.641C235.641 205.141 230.719 159.426 229.789 145.494C228.776 130.383 226.762 97.0911 226.762 97.0911H211.281Z" fill="#37B24D"/>
<path d="M235.772 203.002C235.808 203.002 236.046 205.296 236.046 205.296H227.013L226.369 202.662L235.772 203.002Z" fill="#37B24D"/>
<path opacity="0.2" d="M232.622 200.285C232.604 200.285 232.586 200.278 232.571 200.266C232.557 200.254 232.548 200.237 232.545 200.219C232.497 199.802 228.058 158.508 227.224 145.994C226.318 132.42 224.495 102.311 224.477 102.007C224.476 101.997 224.477 101.987 224.48 101.977C224.484 101.968 224.489 101.959 224.496 101.952C224.502 101.945 224.51 101.939 224.52 101.935C224.529 101.931 224.538 101.929 224.548 101.929C224.568 101.929 224.587 101.936 224.601 101.95C224.615 101.963 224.624 101.981 224.626 102.001C224.626 102.305 226.467 132.39 227.373 145.988C228.207 158.502 232.646 199.766 232.688 200.213C232.69 200.223 232.689 200.233 232.687 200.243C232.684 200.252 232.68 200.261 232.674 200.269C232.668 200.277 232.66 200.284 232.651 200.288C232.642 200.293 232.632 200.296 232.622 200.296V200.285Z" fill="black"/>
<path d="M216.01 41.8832C216.01 42.2467 215.783 42.5387 215.545 42.5387C215.306 42.5387 215.134 42.2467 215.157 41.8832C215.181 41.5198 215.384 41.2278 215.622 41.2278C215.861 41.2278 216.033 41.5257 216.01 41.8832Z" fill="#263238"/>
<path d="M211.918 41.8832C211.918 42.2467 211.685 42.5387 211.453 42.5387C211.221 42.5387 211.042 42.2467 211.06 41.8832C211.078 41.5198 211.292 41.2278 211.531 41.2278C211.769 41.2278 211.942 41.5257 211.918 41.8832Z" fill="#263238"/>
<path d="M213.203 42.067C212.705 43.177 212.064 44.2167 211.296 45.1596C211.892 45.7555 213.006 45.4814 213.006 45.4814L213.203 42.067Z" fill="#DF5753"/>
<path d="M213.317 47.0029C213.303 47.0029 213.29 47.0001 213.277 46.9946C213.264 46.9892 213.253 46.9811 213.243 46.9711C213.234 46.9611 213.227 46.9492 213.222 46.9362C213.217 46.9232 213.215 46.9094 213.216 46.8956C213.218 46.8666 213.23 46.8393 213.251 46.8194C213.272 46.7994 213.3 46.7883 213.329 46.7883C213.785 46.7915 214.236 46.6925 214.648 46.4986C215.061 46.3048 215.424 46.021 215.713 45.6681C215.733 45.6501 215.76 45.6401 215.787 45.6401C215.815 45.6401 215.841 45.6501 215.862 45.6681C215.881 45.6881 215.892 45.7148 215.892 45.7426C215.892 45.7704 215.881 45.7971 215.862 45.8171C215.553 46.1921 215.164 46.4933 214.724 46.6985C214.284 46.9037 213.803 47.0077 213.317 47.0029Z" fill="#263238"/>
<path d="M216.731 40.7869C216.702 40.8015 216.67 40.8091 216.638 40.8091C216.606 40.8091 216.575 40.8015 216.546 40.7869C216.323 40.6428 216.069 40.5531 215.805 40.5252C215.541 40.4972 215.275 40.5318 215.026 40.626C215.002 40.6381 214.976 40.6452 214.949 40.6469C214.922 40.6487 214.895 40.645 214.869 40.6361C214.844 40.6272 214.82 40.6133 214.8 40.5952C214.78 40.5771 214.764 40.5551 214.752 40.5306C214.73 40.4776 214.73 40.418 214.751 40.3646C214.772 40.3112 214.813 40.2681 214.866 40.2446C215.177 40.1174 215.515 40.0672 215.85 40.0983C216.185 40.1294 216.507 40.2409 216.79 40.4234C216.813 40.4389 216.833 40.4588 216.848 40.482C216.863 40.5051 216.873 40.531 216.878 40.5582C216.883 40.5853 216.883 40.6132 216.877 40.6402C216.871 40.6672 216.86 40.6927 216.844 40.7154C216.814 40.7495 216.774 40.7743 216.731 40.7869Z" fill="#263238"/>
<path d="M210.339 39.5941C210.308 39.5864 210.279 39.5699 210.256 39.5465C210.236 39.527 210.22 39.5039 210.21 39.4783C210.199 39.4527 210.193 39.4252 210.193 39.3975C210.193 39.3697 210.199 39.3423 210.21 39.3167C210.22 39.2911 210.236 39.2679 210.256 39.2485C210.484 38.9924 210.769 38.7924 211.087 38.6642C211.405 38.5361 211.749 38.4832 212.091 38.5096C212.119 38.5139 212.145 38.5237 212.168 38.5385C212.192 38.5532 212.212 38.5727 212.228 38.5956C212.243 38.6185 212.254 38.6444 212.259 38.6716C212.265 38.6988 212.264 38.7269 212.258 38.7539C212.245 38.8091 212.213 38.8577 212.167 38.8906C212.121 38.9236 212.064 38.9385 212.008 38.9327C211.737 38.9156 211.466 38.9604 211.215 39.0637C210.964 39.1669 210.74 39.3259 210.56 39.5286C210.533 39.5587 210.498 39.5808 210.459 39.5924C210.42 39.6039 210.379 39.6045 210.339 39.5941Z" fill="#263238"/>
<path d="M232.753 63.9473L226.556 62.2967C226.556 62.2967 220.478 77.2591 218.327 78.2304C215.407 79.5652 208.013 84.1892 204.866 86.3761C204.694 87.1209 204.831 89.0932 205.224 89.6355C210.587 88.6582 220.854 84.7076 222.999 82.6995C227.891 78.1172 232.753 63.9473 232.753 63.9473Z" fill="#E58A7B"/>
<path d="M228.434 211.476C228.132 211.5 227.831 211.418 227.582 211.244C227.506 211.175 227.448 211.086 227.416 210.988C227.383 210.89 227.377 210.785 227.398 210.684C227.401 210.62 227.422 210.559 227.458 210.507C227.493 210.454 227.543 210.413 227.6 210.386C228.101 210.13 229.501 211.017 229.662 211.119C229.68 211.13 229.693 211.146 229.701 211.165C229.708 211.185 229.709 211.206 229.704 211.226C229.698 211.247 229.688 211.266 229.674 211.282C229.659 211.297 229.641 211.309 229.62 211.315C229.232 211.411 228.834 211.465 228.434 211.476ZM227.838 210.547C227.793 210.537 227.747 210.537 227.701 210.547C227.679 210.558 227.66 210.576 227.647 210.599C227.634 210.621 227.628 210.646 227.63 210.672C227.614 210.741 227.617 210.813 227.638 210.881C227.659 210.949 227.697 211.011 227.749 211.059C227.981 211.268 228.565 211.291 229.334 211.143C228.876 210.841 228.361 210.638 227.821 210.547H227.838Z" fill="#37B24D"/>
<path d="M229.584 211.314C229.569 211.319 229.552 211.319 229.537 211.314C229.09 211.063 228.25 210.08 228.375 209.58C228.394 209.5 228.438 209.43 228.502 209.379C228.566 209.328 228.645 209.3 228.726 209.3C228.806 209.289 228.888 209.296 228.965 209.319C229.042 209.343 229.113 209.383 229.173 209.437C229.668 209.86 229.698 211.159 229.698 211.224C229.701 211.244 229.697 211.264 229.687 211.281C229.677 211.298 229.662 211.312 229.644 211.32C229.624 211.324 229.603 211.322 229.584 211.314ZM228.786 209.496H228.744C228.607 209.496 228.589 209.574 228.583 209.604C228.512 209.895 229.042 210.64 229.483 210.992C229.481 210.489 229.325 209.998 229.036 209.586C228.967 209.525 228.878 209.493 228.786 209.496Z" fill="#37B24D"/>
<path d="M212.616 210.73C212.252 210.857 211.855 210.857 211.49 210.73C211.407 210.685 211.337 210.62 211.286 210.541C211.235 210.461 211.205 210.371 211.198 210.277C211.191 210.218 211.198 210.158 211.22 210.103C211.242 210.047 211.277 209.999 211.323 209.961C211.8 209.532 213.748 209.961 213.969 210.044C213.99 210.05 214.008 210.062 214.021 210.079C214.034 210.097 214.041 210.118 214.04 210.14C214.041 210.162 214.036 210.184 214.024 210.203C214.012 210.222 213.995 210.238 213.975 210.247C213.536 210.445 213.082 210.606 212.616 210.73ZM211.645 210.021C211.577 210.034 211.513 210.065 211.46 210.11C211.441 210.124 211.427 210.143 211.418 210.166C211.41 210.188 211.408 210.212 211.413 210.235C211.417 210.298 211.436 210.358 211.469 210.411C211.503 210.464 211.549 210.508 211.603 210.539C211.919 210.706 212.652 210.575 213.6 210.175C212.961 210.014 212.301 209.962 211.645 210.021Z" fill="#37B24D"/>
<path d="M213.949 210.247H213.902C213.306 210.14 212.114 209.454 212.078 208.942C212.078 208.823 212.132 208.656 212.418 208.561C212.514 208.526 212.617 208.512 212.719 208.518C212.822 208.524 212.922 208.551 213.014 208.596C213.657 208.912 213.997 210.056 214.015 210.11C214.019 210.128 214.018 210.147 214.013 210.164C214.008 210.182 213.998 210.198 213.985 210.211C213.976 210.226 213.964 210.238 213.949 210.247ZM212.537 208.739H212.477C212.293 208.805 212.293 208.882 212.293 208.906C212.293 209.216 213.157 209.782 213.758 209.973C213.62 209.494 213.327 209.075 212.924 208.781C212.805 208.72 212.667 208.705 212.537 208.739Z" fill="#37B24D"/>
<path d="M205.374 86.0249L199.159 88.8851L198.438 90.6727L200.733 92.2161C200.733 92.2161 205.023 91.7513 206.244 88.9924L205.374 86.0249Z" fill="#E58A7B"/>
<path d="M205.646 89.7387C205.507 88.5446 205.113 87.3943 204.49 86.3661L205.473 85.6272C206.213 86.812 206.685 88.144 206.856 89.5302L205.646 89.7387Z" fill="#263238"/>
<path d="M206.697 86.8725C206.829 87.0792 206.893 87.3213 206.882 87.5659C206.871 87.8106 206.785 88.0459 206.635 88.2398C206.486 88.4337 206.28 88.5768 206.046 88.6497C205.813 88.7226 205.562 88.7217 205.329 88.6472C205.096 88.5726 204.891 88.428 204.743 88.233C204.595 88.038 204.51 87.8021 204.501 87.5574C204.492 87.3127 204.558 87.0711 204.691 86.8654C204.824 86.6596 205.017 86.4999 205.243 86.4078C205.498 86.278 205.794 86.254 206.066 86.3411C206.338 86.4281 206.565 86.6191 206.697 86.8725Z" fill="#263238"/>
<path d="M194.958 91.1977L195.786 92.032L201.364 89.6485L199.159 88.8857L194.958 91.1977Z" fill="#E58A7B"/>
<path opacity="0.2" d="M218.908 200.111C218.944 200.111 219.754 202.388 219.754 202.388L211.507 205.856L210.208 203.436L218.908 200.111Z" fill="black"/>
<path opacity="0.2" d="M235.772 203.002C235.808 203.002 236.046 205.296 236.046 205.296H227.013L226.369 202.662L235.772 203.002Z" fill="black"/>
<path d="M234.371 62.2327C236.009 67.5181 229.604 74.7461 229.604 74.7461L220.755 71.1351C221.804 68.0802 223.013 65.0827 224.378 62.1552C227.095 56.2978 232.714 56.8996 234.371 62.2327Z" fill="#37B24D"/>
<path opacity="0.2" d="M234.371 62.2327C236.009 67.5181 229.604 74.7461 229.604 74.7461L220.755 71.1351C221.804 68.0802 223.013 65.0827 224.378 62.1552C227.095 56.2978 232.714 56.8996 234.371 62.2327Z" fill="black"/>
<path d="M146.448 9.27826H142.641V9.89201H146.448V9.27826Z" fill="#37B24D"/>
<path d="M195.734 33.5703L195.273 43.7971L195.887 43.8247L196.347 33.5979L195.734 33.5703Z" fill="#37B24D"/>
<path d="M194.551 12.03H124.238L117.695 158.449H188.009L194.551 12.03Z" fill="#37B24D"/>
<path opacity="0.56" d="M192.452 14.0446H122.138L115.596 160.463H185.909L192.452 14.0446Z" fill="#FAFAFA"/>
<path opacity="0.07" d="M190.356 16.0536H120.043L113.494 162.472H183.808L190.356 16.0536Z" fill="#37B24D"/>
<path d="M182.349 79.9135H122.333L121.832 91.116H181.849L182.349 79.9135Z" fill="white"/>
<path d="M155.342 71.7365H122.7L122.479 76.7478H155.122L155.342 71.7365Z" fill="#37B24D"/>
<path d="M181.002 110.147H120.985L120.484 121.349H180.501L181.002 110.147Z" fill="white"/>
<path opacity="0.47" d="M169.998 136.48H129.639L129.037 149.905H169.396L169.998 136.48Z" fill="#37B24D"/>
<path d="M167.293 151.99H126.934C126.916 151.995 126.898 151.995 126.88 151.99C126.875 151.973 126.875 151.954 126.88 151.937L127.476 138.506C127.476 138.496 127.478 138.487 127.482 138.479C127.485 138.471 127.491 138.463 127.498 138.457C127.504 138.451 127.512 138.446 127.521 138.443C127.53 138.44 127.539 138.439 127.548 138.44H167.906C167.914 138.436 167.922 138.434 167.93 138.434C167.939 138.434 167.947 138.436 167.954 138.44C167.958 138.447 167.961 138.456 167.961 138.464C167.961 138.472 167.958 138.48 167.954 138.488L167.37 151.949C167.363 151.963 167.352 151.974 167.338 151.981C167.324 151.989 167.308 151.992 167.293 151.99ZM127.006 151.847H167.221L167.817 138.559H127.601L127.006 151.847Z" fill="white"/>
<path d="M148.292 101.973H121.346L121.126 106.99H148.066L148.292 101.973Z" fill="#37B24D"/>
<path d="M169.227 43.7264C169.073 46.9867 167.914 50.1193 165.908 52.6943C164.424 54.6393 162.513 56.2184 160.323 57.3102C158.134 58.402 155.723 58.9776 153.276 58.9927C151.299 59.0078 149.339 58.6179 147.518 57.847C145.697 57.0762 144.053 55.9406 142.688 54.5104C141.323 53.0802 140.264 51.3856 139.579 49.5309C138.893 47.6763 138.594 45.7009 138.701 43.7264C138.91 39.6292 140.677 35.7667 143.64 32.929C146.603 30.0913 150.538 28.4927 154.64 28.46C156.619 28.4416 158.581 28.8291 160.404 29.5986C162.227 30.3682 163.873 31.5034 165.24 32.9342C166.607 34.3649 167.666 36.0608 168.352 37.9171C169.038 39.7733 169.336 41.7505 169.227 43.7264Z" fill="white"/>
<path d="M170.661 31.6531C170.622 32.52 170.314 33.3532 169.779 34.0366C169.384 34.5532 168.875 34.9726 168.293 35.2628C167.71 35.553 167.069 35.7063 166.418 35.711C165.788 35.7149 165.166 35.5643 164.607 35.2724C164.049 34.9805 163.57 34.5562 163.213 34.0366C162.74 33.3345 162.506 32.4987 162.545 31.6531C162.603 30.5653 163.073 29.5404 163.861 28.7875C164.648 28.0345 165.693 27.6103 166.782 27.6012C167.308 27.5964 167.828 27.6992 168.313 27.9034C168.797 28.1076 169.234 28.4088 169.598 28.7884C169.961 29.168 170.243 29.618 170.426 30.1107C170.609 30.6034 170.689 31.1283 170.661 31.6531Z" fill="#37B24D"/>
<path d="M128.806 85.5135C128.778 85.9937 128.568 86.4451 128.22 86.7769C127.872 87.1086 127.41 87.296 126.929 87.3011C126.697 87.3039 126.467 87.259 126.253 87.1692C126.038 87.0794 125.845 86.9467 125.684 86.7791C125.523 86.6116 125.398 86.4128 125.317 86.1951C125.237 85.9774 125.201 85.7455 125.213 85.5135C125.239 85.0324 125.448 84.5793 125.797 84.247C126.146 83.9146 126.608 83.7282 127.09 83.7259C127.322 83.724 127.552 83.7695 127.766 83.8596C127.98 83.9497 128.173 84.0825 128.334 84.2498C128.494 84.4172 128.619 84.6156 128.7 84.8329C128.782 85.0502 128.818 85.2818 128.806 85.5135Z" fill="#263238"/>
<path d="M136.836 85.5136C136.808 85.9942 136.599 86.4465 136.251 86.7785C135.902 87.1106 135.44 87.2974 134.959 87.3012C134.727 87.3032 134.497 87.2576 134.284 87.1675C134.07 87.0773 133.877 86.9444 133.717 86.777C133.557 86.6095 133.433 86.411 133.352 86.1938C133.272 85.9765 133.236 85.745 133.248 85.5136C133.274 85.0334 133.482 84.5812 133.83 84.249C134.177 83.9169 134.639 83.7298 135.12 83.726C135.352 83.7232 135.582 83.7681 135.796 83.8579C136.01 83.9477 136.204 84.0804 136.365 84.248C136.526 84.4155 136.65 84.6143 136.731 84.832C136.812 85.0497 136.848 85.2816 136.836 85.5136Z" fill="#263238"/>
<path d="M144.873 85.5136C144.846 85.9942 144.637 86.4465 144.288 86.7785C143.94 87.1106 143.478 87.2974 142.996 87.3012C142.764 87.3031 142.535 87.2576 142.321 87.1675C142.107 87.0774 141.914 86.9446 141.753 86.7773C141.592 86.6099 141.468 86.4115 141.386 86.1942C141.305 85.9769 141.269 85.7453 141.28 85.5136C141.308 85.0329 141.517 84.5806 141.865 84.2486C142.214 83.9166 142.676 83.7297 143.157 83.726C143.39 83.7232 143.62 83.7681 143.834 83.8579C144.048 83.9477 144.242 84.0804 144.403 84.248C144.564 84.4155 144.688 84.6143 144.769 84.832C144.85 85.0497 144.886 85.2816 144.873 85.5136Z" fill="#263238"/>
<path d="M127.443 115.748C127.414 116.228 127.205 116.68 126.856 117.011C126.508 117.343 126.047 117.53 125.566 117.536C125.334 117.537 125.104 117.492 124.89 117.402C124.676 117.312 124.483 117.179 124.322 117.012C124.162 116.844 124.037 116.646 123.956 116.429C123.874 116.211 123.838 115.98 123.85 115.748C123.877 115.267 124.086 114.815 124.435 114.483C124.783 114.151 125.245 113.964 125.727 113.96C125.959 113.958 126.189 114.004 126.402 114.094C126.616 114.184 126.809 114.317 126.97 114.484C127.131 114.652 127.256 114.85 127.337 115.067C127.418 115.285 127.454 115.516 127.443 115.748Z" fill="#263238"/>
<path d="M135.479 115.748C135.452 116.228 135.244 116.679 134.896 117.011C134.549 117.343 134.089 117.53 133.608 117.536C133.376 117.538 133.146 117.493 132.931 117.404C132.717 117.314 132.524 117.181 132.363 117.013C132.202 116.846 132.077 116.647 131.996 116.429C131.915 116.212 131.88 115.98 131.892 115.748C131.919 115.267 132.128 114.815 132.477 114.483C132.826 114.151 133.288 113.964 133.769 113.96C134.001 113.958 134.23 114.004 134.444 114.094C134.657 114.184 134.85 114.317 135.01 114.484C135.171 114.652 135.295 114.85 135.375 115.068C135.456 115.285 135.491 115.516 135.479 115.748Z" fill="#263238"/>
<path d="M143.538 115.748C143.511 116.229 143.302 116.681 142.953 117.013C142.605 117.345 142.143 117.532 141.661 117.536C141.429 117.537 141.2 117.491 140.987 117.4C140.773 117.31 140.58 117.177 140.42 117.01C140.259 116.843 140.134 116.645 140.053 116.428C139.971 116.211 139.935 115.979 139.945 115.748C139.974 115.268 140.183 114.816 140.532 114.485C140.88 114.153 141.341 113.966 141.822 113.96C142.054 113.958 142.285 114.002 142.499 114.092C142.713 114.182 142.907 114.315 143.067 114.482C143.228 114.65 143.353 114.849 143.434 115.066C143.515 115.284 143.55 115.516 143.538 115.748Z" fill="#263238"/>
<path d="M151.557 115.748C151.528 116.228 151.319 116.68 150.97 117.011C150.622 117.343 150.161 117.53 149.68 117.536C149.448 117.537 149.219 117.49 149.005 117.4C148.792 117.31 148.599 117.177 148.438 117.01C148.278 116.843 148.153 116.644 148.071 116.428C147.99 116.211 147.953 115.979 147.964 115.748C147.992 115.268 148.202 114.816 148.55 114.485C148.899 114.153 149.36 113.965 149.841 113.96C150.073 113.958 150.303 114.004 150.516 114.094C150.73 114.184 150.923 114.317 151.084 114.484C151.245 114.652 151.37 114.85 151.451 115.067C151.532 115.285 151.568 115.516 151.557 115.748Z" fill="#263238"/>
<path d="M159.626 115.748C159.597 116.228 159.388 116.679 159.039 117.011C158.691 117.343 158.23 117.53 157.749 117.535C157.517 117.538 157.286 117.493 157.072 117.404C156.858 117.314 156.664 117.181 156.503 117.013C156.343 116.846 156.218 116.647 156.137 116.429C156.056 116.212 156.02 115.98 156.033 115.748C156.06 115.267 156.269 114.815 156.618 114.483C156.966 114.151 157.428 113.964 157.91 113.96C158.142 113.958 158.372 114.004 158.585 114.094C158.799 114.184 158.992 114.317 159.153 114.484C159.314 114.651 159.438 114.85 159.52 115.067C159.601 115.284 159.637 115.516 159.626 115.748Z" fill="#263238"/>
<path d="M158.412 42.9295C160.906 40.4905 161.038 36.5812 158.707 34.1977C156.376 31.8142 152.465 31.8592 149.971 34.2982C147.477 36.7371 147.345 40.6465 149.675 43.03C152.006 45.4134 155.918 45.3685 158.412 42.9295Z" fill="#37B24D"/>
<path d="M165.904 52.6929C164.419 54.6379 162.509 56.2169 160.319 57.3088C158.129 58.4006 155.718 58.9762 153.271 58.9913C150.899 59.0115 148.558 58.4474 146.454 57.349C144.351 56.2506 142.55 54.6516 141.211 52.6929C144.107 49.8089 148.689 47.9259 153.766 47.9259C158.843 47.9259 163.264 49.8089 165.904 52.6929Z" fill="#37B24D"/>
<path opacity="0.1" d="M158.412 42.9295C160.906 40.4905 161.038 36.5812 158.707 34.1977C156.376 31.8142 152.465 31.8592 149.971 34.2982C147.477 36.7371 147.345 40.6465 149.675 43.03C152.006 45.4134 155.918 45.3685 158.412 42.9295Z" fill="white"/>
<path opacity="0.1" d="M165.904 52.6929C164.419 54.6379 162.509 56.2169 160.319 57.3088C158.129 58.4006 155.718 58.9762 153.271 58.9913C150.899 59.0115 148.558 58.4474 146.454 57.349C144.351 56.2506 142.55 54.6516 141.211 52.6929C144.107 49.8089 148.689 47.9259 153.766 47.9259C158.843 47.9259 163.264 49.8089 165.904 52.6929Z" fill="white"/>
<path d="M78.2438 93.816C77.6777 95.0554 77.0819 96.42 76.5635 97.7428C76.045 99.0657 75.5147 100.43 75.0559 101.789C74.1191 104.466 73.4056 107.217 72.9227 110.012L72.7916 110.888C72.7791 111.038 72.7932 111.189 72.8333 111.335C72.9739 111.829 73.1954 112.296 73.4887 112.717C74.254 113.808 75.1417 114.808 76.1344 115.697C77.1811 116.67 78.2791 117.587 79.4237 118.444C80.5677 119.325 81.7714 120.184 82.9572 120.994L81.8429 123.085C79.0114 121.852 76.3239 120.311 73.8284 118.491C72.497 117.52 71.2955 116.383 70.2531 115.107C69.6353 114.347 69.1534 113.486 68.829 112.562C68.6403 111.985 68.5438 111.382 68.543 110.775C68.543 110.632 68.543 110.423 68.543 110.322V110.03L68.6026 109.434C68.9442 106.329 69.597 103.267 70.5511 100.293C71.0159 98.8273 71.5104 97.3674 72.0765 95.9433C72.6426 94.5191 73.2266 93.1248 73.9476 91.6768L78.2438 93.816Z" fill="#E58A7B"/>
<path d="M82.1191 120.624L86.3319 118.49L85.2415 123.114C85.2415 123.114 82.3515 123.925 81.0107 122.519L82.1191 120.624Z" fill="#E58A7B"/>
<path d="M90.1841 119.247L89.0638 123.073L85.2383 123.115L86.3287 118.491L90.1841 119.247Z" fill="#E58A7B"/>
<path d="M96.1232 71.5049C96.3486 72.3307 96.6622 73.1298 97.0588 73.8884C96.9429 74.0198 96.7937 74.1174 96.6269 74.1709C96.4601 74.2244 96.282 74.2318 96.1113 74.1923L96.1232 71.5049Z" fill="#DF5753"/>
<path d="M96.0055 71.5415C96.2523 71.5415 96.4524 71.2347 96.4524 70.8562C96.4524 70.4778 96.2523 70.171 96.0055 70.171C95.7587 70.171 95.5586 70.4778 95.5586 70.8562C95.5586 71.2347 95.7587 71.5415 96.0055 71.5415Z" fill="#263238"/>
<path d="M95.873 70.1948L96.7784 69.9387C96.7784 69.9387 96.3377 70.6415 95.873 70.1948Z" fill="#263238"/>
<path d="M84.4938 75.8795C85.036 78.6503 85.5783 83.7331 83.6357 85.5863C83.6357 85.5863 84.3985 88.3988 89.5528 88.3988C95.2196 88.3988 92.2581 85.5863 92.2581 85.5863C89.1655 84.8474 89.2429 82.5533 89.7852 80.3962L84.4938 75.8795Z" fill="#E58A7B"/>
<path d="M82.9837 69.5634C83.2698 74.1934 83.2936 76.1598 85.6294 78.5373C89.1511 82.1126 94.7761 80.754 95.8785 76.1538C96.8736 71.9827 96.242 65.1182 91.7074 63.2769C90.712 62.8669 89.6285 62.7175 88.5593 62.843C87.4901 62.9685 86.4706 63.3647 85.5972 63.994C84.7239 64.6234 84.0255 65.4652 83.5682 66.4398C83.1108 67.4143 82.9097 68.4894 82.9837 69.5634Z" fill="#E58A7B"/>
<path d="M83.442 64.3548C81.1181 65.2009 78.0196 64.5693 79.2352 71.7377C80.5223 79.3291 78.5439 81.8258 78.5439 81.8258C78.5439 81.8258 87.3569 83.7029 96.3547 81.7126C96.3547 81.7126 93.6077 76.9099 94.3764 73.3704C95.3596 68.9013 94.5849 67.2507 94.5849 67.2507C94.5849 67.2507 86.7074 63.163 83.442 64.3548Z" fill="#263238"/>
<path d="M93.2764 71.9751C93.2788 72.8555 93.5309 73.7171 94.0033 74.46C94.635 75.4253 95.3798 75.0558 95.5645 74.0309C95.7314 73.1312 95.6062 71.5402 94.8018 70.9205C93.9974 70.3007 93.2883 70.9085 93.2764 71.9751Z" fill="#E58A7B"/>
<path d="M81.4258 65.1348C80.7585 63.2578 83.9404 60.3678 90.6738 61.5596C97.4072 62.7513 97.6992 68.3585 97.6992 68.3585L96.3406 66.7377L96.4002 68.442L89.4821 69.7708L81.4258 65.1348Z" fill="#263238"/>
<path d="M81.9974 85.9026C81.9577 85.6306 82.0257 85.3537 82.1871 85.1311C82.3485 84.9085 82.5905 84.7577 82.8614 84.7109C84.9589 84.3653 89.7259 83.6621 92.1213 83.9958C93.909 84.2461 94.3737 85.2829 94.4512 86.135C94.4633 86.2842 94.4434 86.4343 94.3927 86.5752C94.342 86.716 94.2617 86.8444 94.1573 86.9516C94.0529 87.0589 93.9267 87.1425 93.7872 87.197C93.6478 87.2514 93.4983 87.2753 93.3488 87.2672L82.9925 86.8024C82.7484 86.7901 82.516 86.6938 82.3346 86.5298C82.1533 86.3659 82.0342 86.1443 81.9974 85.9026Z" fill="#37B24D"/>
<path opacity="0.6" d="M81.9974 85.9026C81.9577 85.6306 82.0257 85.3537 82.1871 85.1311C82.3485 84.9085 82.5905 84.7577 82.8614 84.7109C84.9589 84.3653 89.7259 83.6621 92.1213 83.9958C93.909 84.2461 94.3737 85.2829 94.4512 86.135C94.4633 86.2842 94.4434 86.4343 94.3927 86.5752C94.342 86.716 94.2617 86.8444 94.1573 86.9516C94.0529 87.0589 93.9267 87.1425 93.7872 87.197C93.6478 87.2514 93.4983 87.2753 93.3488 87.2672L82.9925 86.8024C82.7484 86.7901 82.516 86.6938 82.3346 86.5298C82.1533 86.3659 82.0342 86.1443 81.9974 85.9026Z" fill="black"/>
<path d="M87.9883 190L91.8317 192.67L98.2612 183.952L94.4178 181.288L87.9883 190Z" fill="#E58A7B"/>
<path d="M79.0244 189.828L83.0823 192.14L88.7729 182.922L84.715 180.61L79.0244 189.828Z" fill="#E58A7B"/>
<path d="M98.2522 183.952L94.9391 188.445L91.0957 185.781L94.4088 181.288L98.2522 183.952Z" fill="#CF6F64"/>
<path d="M84.7071 180.61L88.771 182.928L85.8393 187.677L81.7754 185.359L84.7071 180.61Z" fill="#CF6F64"/>
<path d="M91.2322 115.003C91.2322 115.003 106.236 133.91 103.418 151.995C101.148 166.6 87.9788 186.377 87.9788 186.377L81.7876 183.303C86.1515 174.558 89.8755 165.509 92.9305 156.226C93.8725 153.344 94.1475 150.286 93.7346 147.282C93.3217 144.278 92.2317 141.407 90.547 138.886C82.9436 127.785 70.7639 134.393 78.9572 115.003H91.2322Z" fill="#37B24D"/>
<path opacity="0.6" d="M91.2322 115.003C91.2322 115.003 106.236 133.91 103.418 151.995C101.148 166.6 87.9788 186.377 87.9788 186.377L81.7876 183.303C86.1515 174.558 89.8755 165.509 92.9305 156.226C93.8725 153.344 94.1475 150.286 93.7346 147.282C93.3217 144.278 92.2317 141.407 90.547 138.886C82.9436 127.785 70.7639 134.393 78.9572 115.003H91.2322Z" fill="black"/>
<path opacity="0.4" d="M98.5901 127.147L96.4092 124.978C96.4092 125.151 100.634 151.232 101.82 158.562C102.519 156.421 103.055 154.229 103.423 152.007C104.817 143.134 101.903 134.071 98.5901 127.147Z" fill="black"/>
<path d="M97.9244 115.003C97.9244 115.003 115.991 138.767 116.504 153.014C116.927 164.932 96.8399 188.022 96.8399 188.022L91.0003 184.244C91.0003 184.244 102.757 167.846 105.718 154.45C104.574 141.174 80.3818 115.003 80.3818 115.003H97.9244Z" fill="#37B24D"/>
<path opacity="0.6" d="M97.9244 115.003C97.9244 115.003 115.991 138.767 116.504 153.014C116.927 164.932 96.8399 188.022 96.8399 188.022L91.0003 184.244C91.0003 184.244 102.757 167.846 105.718 154.45C104.574 141.174 80.3818 115.003 80.3818 115.003H97.9244Z" fill="black"/>
<path d="M75.5748 86.6472C73.6442 87.1061 71.791 94.1255 71.791 94.1255L79.3408 99.1666C79.3408 99.1666 81.8554 93.613 80.9735 91.1819C80.0618 88.6494 78 86.0692 75.5748 86.6472Z" fill="#37B24D"/>
<path opacity="0.2" d="M77.0459 91.1697L76.5215 97.2894L79.3281 99.1723C80.103 97.4277 80.6768 95.6005 81.0382 93.726L77.0459 91.1697Z" fill="black"/>
<path d="M100.165 86.784C100.165 86.784 102.394 87.5646 97.9304 114.999H78.9458C79.2676 107.252 79.2735 102.485 75.5791 86.6469C78.2374 86.0991 80.9318 85.7446 83.6413 85.5863C86.5117 85.3804 89.3932 85.3804 92.2636 85.5863C95.97 85.9259 100.165 86.784 100.165 86.784Z" fill="#37B24D"/>
<path d="M102.09 91.1674C102.519 92.3592 102.972 93.6403 103.449 94.8738C103.925 96.1072 104.378 97.3764 104.861 98.6278L106.321 102.37L106.69 103.305L106.881 103.77L106.97 104.003C106.97 104.044 106.97 104.044 106.97 104.038C106.861 103.885 106.719 103.758 106.553 103.669C106.317 103.53 106.052 103.45 105.778 103.436C105.551 103.429 105.326 103.472 105.117 103.562C104.843 103.687 104.843 103.74 104.849 103.734C104.898 103.695 104.943 103.649 104.98 103.597C105.31 103.164 105.595 102.699 105.832 102.209C106.112 101.661 106.38 101.077 106.648 100.487C107.173 99.2952 107.655 98.0617 108.138 96.8163C108.621 95.5709 109.08 94.3136 109.527 93.0444L110.885 89.2427L113.179 89.8386C112.726 92.5558 112.142 95.2015 111.439 97.8948C111.1 99.2356 110.7 100.564 110.248 101.905C110.021 102.578 109.771 103.246 109.485 103.931C109.187 104.675 108.82 105.389 108.388 106.064C108.23 106.292 108.055 106.507 107.864 106.708C107.56 107.037 107.19 107.298 106.78 107.477C106.415 107.633 106.02 107.706 105.624 107.691C105.179 107.675 104.747 107.545 104.366 107.316C103.917 107.036 103.545 106.649 103.282 106.189C103.192 106.035 103.115 105.88 103.061 105.766L102.948 105.54L102.722 105.075L102.269 104.152C101.673 102.912 101.077 101.661 100.559 100.403C100.04 99.1462 99.492 97.871 98.9795 96.5899C98.4671 95.3088 98.0082 94.0276 97.5732 92.6452L102.09 91.1674Z" fill="#E58A7B"/>
<path d="M100.152 86.7826C102.434 87.3249 105.002 94.0702 105.002 94.0702L98.2151 99.8442C98.2151 99.8442 93.8234 92.4911 94.7113 90.0659C95.6349 87.5394 97.1723 86.0735 100.152 86.7826Z" fill="#37B24D"/>
<path d="M111.957 87.1105L114.34 85.1203L115.997 87.7004L114.775 89.8515C114.775 89.8515 112.833 91.6392 111.117 90.7275C110.844 90.1153 110.779 89.4309 110.93 88.7782C111.082 88.1255 111.442 87.54 111.957 87.1105Z" fill="#E58A7B"/>
<path d="M118.641 85.1263L118.463 85.7758L114.691 86.4074L114.321 85.1203L118.641 85.1263Z" fill="#E58A7B"/>
<path d="M97.3088 188.327L90.5039 183.93L91.7255 181.808L99.3705 186.51L97.3088 188.327Z" fill="#37B24D"/>
<path d="M85.7465 191.829C85.1495 191.756 84.5758 191.553 84.0661 191.234C84.0451 191.226 84.0269 191.213 84.014 191.194C84.0011 191.176 83.9941 191.155 83.9941 191.132C83.9941 191.11 84.0011 191.088 84.014 191.07C84.0269 191.052 84.0451 191.038 84.0661 191.031C84.2509 190.971 85.8538 190.477 86.3186 190.858C86.3708 190.902 86.4105 190.958 86.4335 191.022C86.4566 191.086 86.4621 191.155 86.4496 191.222C86.4414 191.329 86.4058 191.432 86.3464 191.522C86.2869 191.612 86.2056 191.685 86.11 191.734C85.9984 191.795 85.8736 191.828 85.7465 191.829ZM84.4058 191.174C85.1506 191.555 85.7465 191.692 86.0325 191.549C86.0948 191.515 86.1472 191.465 86.1848 191.404C86.2223 191.344 86.2438 191.275 86.2471 191.204C86.2471 191.108 86.2471 191.067 86.1934 191.043C85.9432 190.84 85.0493 190.995 84.3939 191.174H84.4058Z" fill="#263238"/>
<path d="M84.1067 191.276C84.0753 191.276 84.0453 191.263 84.0233 191.241C84.0144 191.224 84.0098 191.206 84.0098 191.187C84.0098 191.168 84.0144 191.15 84.0233 191.133C84.0233 191.08 84.4106 189.787 85.0184 189.495C85.096 189.459 85.1804 189.441 85.2657 189.441C85.351 189.441 85.4353 189.459 85.513 189.495C85.5966 189.521 85.6691 189.575 85.7188 189.647C85.7684 189.719 85.7925 189.806 85.7871 189.894C85.7454 190.43 84.6549 191.169 84.1544 191.294L84.1067 191.276ZM85.2627 189.65C85.2047 189.651 85.1478 189.666 85.0959 189.691C84.7264 189.87 84.4225 190.567 84.2735 190.99C84.7979 190.77 85.5189 190.186 85.5428 189.858C85.5428 189.805 85.5428 189.739 85.4057 189.679C85.3611 189.655 85.3128 189.639 85.2627 189.632V189.65Z" fill="#263238"/>
<path d="M94.2508 194.406C93.5775 194.406 92.642 193.542 92.1295 193.011C92.1164 192.993 92.1094 192.971 92.1094 192.949C92.1094 192.926 92.1164 192.904 92.1295 192.886C92.1413 192.867 92.158 192.851 92.1779 192.841C92.1979 192.83 92.2202 192.825 92.2427 192.827C92.4811 192.827 94.5488 193.137 94.8407 193.72C94.8717 193.773 94.888 193.832 94.888 193.893C94.888 193.954 94.8717 194.014 94.8407 194.066C94.797 194.157 94.7308 194.235 94.6485 194.294C94.5661 194.352 94.4703 194.389 94.37 194.4L94.2508 194.406ZM92.5228 193.095C93.2736 193.822 93.935 194.227 94.3104 194.179C94.3762 194.171 94.4388 194.146 94.4928 194.108C94.5468 194.069 94.5906 194.018 94.6203 193.959C94.6336 193.938 94.6407 193.915 94.6407 193.89C94.6407 193.866 94.6336 193.842 94.6203 193.822C94.4653 193.5 93.363 193.226 92.5228 193.095Z" fill="#263238"/>
<path d="M92.5851 193.064C92.4513 193.068 92.3175 193.058 92.1858 193.034C92.1674 193.032 92.1501 193.024 92.1354 193.013C92.1208 193.001 92.1094 192.986 92.1024 192.969C92.0935 192.951 92.0889 192.932 92.0889 192.912C92.0889 192.892 92.0935 192.873 92.1024 192.856C92.1382 192.814 92.9426 191.843 93.7053 191.777C93.9212 191.76 94.1351 191.829 94.3012 191.968C94.5336 192.17 94.5217 192.349 94.4621 192.462C94.3131 192.867 93.2822 193.064 92.5851 193.064ZM92.4301 192.844C93.0975 192.879 94.1641 192.659 94.3012 192.367C94.3012 192.367 94.3489 192.272 94.1939 192.14C94.1323 192.087 94.0603 192.046 93.9824 192.022C93.9045 191.997 93.8223 191.989 93.7411 191.997C93.2273 192.141 92.7698 192.438 92.4301 192.85V192.844Z" fill="#263238"/>
<path d="M84.2656 190.631L79.2126 189.201C79.1255 189.175 79.0317 189.181 78.9492 189.22C78.8667 189.258 78.8014 189.326 78.7657 189.41L77.0614 193.241C77.0214 193.339 77.0026 193.445 77.0063 193.551C77.01 193.656 77.036 193.76 77.0827 193.856C77.1295 193.951 77.1958 194.035 77.2774 194.102C77.3589 194.17 77.4539 194.22 77.556 194.248C79.3437 194.713 80.2017 194.844 82.4243 195.482C83.7948 195.863 85.7493 196.572 87.6382 197.108C89.5272 197.645 90.1588 195.803 89.4259 195.41C86.1128 193.658 85.8506 192.431 84.9449 191.12C84.7827 190.882 84.5423 190.709 84.2656 190.631Z" fill="#37B24D"/>
<path d="M92.258 192.313L87.9438 189.333C87.8707 189.28 87.7805 189.255 87.6905 189.264C87.6004 189.273 87.5167 189.315 87.4552 189.381L84.595 192.456C84.5253 192.535 84.4733 192.629 84.4425 192.73C84.4117 192.831 84.4028 192.937 84.4163 193.042C84.4298 193.147 84.4655 193.248 84.521 193.338C84.5764 193.428 84.6504 193.505 84.738 193.564C86.2575 194.583 87.0441 194.994 88.9449 196.311C90.1367 197.121 92.4427 198.921 94.0516 200.041C95.6604 201.161 96.8581 199.624 96.2861 199.016C93.7238 196.281 93.1637 194.565 92.7406 193.01C92.6672 192.728 92.4962 192.481 92.258 192.313Z" fill="#37B24D"/>
<path d="M88.7713 186.771L80.9951 182.904L81.7995 180.794L90.1061 184.87L88.7713 186.771Z" fill="#37B24D"/>
<path d="M78.6531 113.883L77.9976 115.599C77.932 115.73 78.087 115.867 78.3074 115.867H98.019C98.1918 115.867 98.3348 115.784 98.3467 115.676L98.5136 113.972C98.5136 113.859 98.3765 113.758 98.1918 113.758H78.9629C78.905 113.752 78.8467 113.761 78.7928 113.783C78.7388 113.804 78.6909 113.839 78.6531 113.883Z" fill="#37B24D"/>
<path opacity="0.4" d="M78.6531 113.883L77.9976 115.599C77.932 115.73 78.087 115.867 78.3074 115.867H98.019C98.1918 115.867 98.3348 115.784 98.3467 115.676L98.5136 113.972C98.5136 113.859 98.3765 113.758 98.1918 113.758H78.9629C78.905 113.752 78.8467 113.761 78.7928 113.783C78.7388 113.804 78.6909 113.839 78.6531 113.883Z" fill="white"/>
<path d="M81.7628 116.034H81.2444C81.1431 116.034 81.0657 115.981 81.0716 115.915L81.3159 113.704C81.3159 113.645 81.4113 113.591 81.5126 113.591H82.031C82.1323 113.591 82.2097 113.645 82.2038 113.704L81.9595 115.915C81.9535 115.981 81.8641 116.034 81.7628 116.034Z" fill="#37B24D"/>
<path d="M93.9112 116.034H93.3987C93.2974 116.034 93.2199 115.981 93.2259 115.915L93.4643 113.704C93.4643 113.645 93.5656 113.591 93.6669 113.591H94.1793C94.2806 113.591 94.364 113.645 94.3521 113.704L94.1138 115.915C94.084 115.981 94.0184 116.034 93.9112 116.034Z" fill="#37B24D"/>
<g style="mix-blend-mode:multiply">
<path d="M81.3034 216.948C90.1198 216.948 97.2669 216.43 97.2669 215.792C97.2669 215.153 90.1198 214.636 81.3034 214.636C72.487 214.636 65.3398 215.153 65.3398 215.792C65.3398 216.43 72.487 216.948 81.3034 216.948Z" fill="#F5F5F5"/>
</g>
<path d="M91.0343 214.157C88.2098 213.335 85.0755 212.28 83.1806 211.178C83.127 211.142 83.0674 211.124 83.0138 211.094V198.307H88.7282C89.162 198.281 89.5696 198.091 89.8677 197.774C90.1657 197.458 90.3317 197.04 90.3317 196.605C90.3317 196.171 90.1657 195.753 89.8677 195.436C89.5696 195.12 89.162 194.93 88.7282 194.904H83.0436V136.616H79.6113V194.904H73.9326C73.7007 194.89 73.4685 194.924 73.2502 195.004C73.0318 195.083 72.832 195.206 72.663 195.365C72.494 195.525 72.3593 195.717 72.2672 195.93C72.1752 196.143 72.1277 196.373 72.1277 196.605C72.1277 196.838 72.1752 197.068 72.2672 197.281C72.3593 197.494 72.494 197.686 72.663 197.846C72.832 198.005 73.0318 198.128 73.2502 198.207C73.4685 198.287 73.7007 198.32 73.9326 198.307H79.6113V211.076C79.5577 211.076 79.5041 211.124 79.4504 211.16C77.5258 212.28 74.4153 213.335 71.5908 214.139C71.4 214.197 71.2362 214.321 71.129 214.489C71.0218 214.657 70.9783 214.858 71.0064 215.055C71.0345 215.252 71.1323 215.433 71.2821 215.565C71.432 215.696 71.6239 215.77 71.8232 215.772H90.8019C90.9923 215.759 91.1726 215.681 91.3125 215.551C91.4525 215.421 91.5437 215.247 91.5709 215.058C91.5981 214.869 91.5596 214.677 91.462 214.513C91.3643 214.349 91.2133 214.223 91.0343 214.157Z" fill="#E0E0E0"/>
<path d="M91.9059 130.683H70.7165C69.0118 130.683 67.6299 132.065 67.6299 133.77V140.068C67.6299 141.773 69.0118 143.155 70.7165 143.155H91.9059C93.6106 143.155 94.9925 141.773 94.9925 140.068V133.77C94.9925 132.065 93.6106 130.683 91.9059 130.683Z" fill="#37B24D"/>
<path d="M70.5195 143.159V144.244C70.5195 145.138 71.4908 145.865 72.6826 145.865H89.963C91.1547 145.865 92.126 145.138 92.126 144.244V143.159H70.5195Z" fill="#37B24D"/>
<path opacity="0.3" d="M70.5195 143.159V144.244C70.5195 145.138 71.4908 145.865 72.6826 145.865H89.963C91.1547 145.865 92.126 145.138 92.126 144.244V143.159H70.5195Z" fill="white"/>
</svg>
